<?xml version="1.0" encoding="utf-8"?>
<!-- Generator: Adobe Illustrator 22.1.0, SVG Export Plug-In . SVG Version: 6.00 Build 0)  -->
<svg version="1.1" id="Layer_1" xmlns="http://www.w3.org/2000/svg" xmlns:xlink="http://www.w3.org/1999/xlink" x="0px" y="0px"
	 viewBox="0 0 283 113" style="enable-background:new 0 0 283 113;" xml:space="preserve">
<style type="text/css">
	.st0{fill:url(#SVGID_1_);}
	.st1{fill:url(#SVGID_2_);}
</style>
<g id="e6a9b544-6145-6fc2-ea66-2788665c643e" transform="matrix(1.6,0,0,1.6,94.28699172884225,133.98400549888612)">
	<path d="M-3.5-43.4L-4.4-46h-3.8l-0.9,2.7h-1.4l3.5-9.8h1.4l3.5,9.8H-3.5z M-7.8-47.2h2.9l-1.5-4.1L-7.8-47.2z M0.8-43.2L0.8-43.2
		c-0.5,0-1-0.1-1.4-0.2l0,0l0,0c-0.4-0.1-0.7-0.3-0.9-0.4l0,0l0.2-1.2l0,0c0.2,0.2,0.5,0.3,0.9,0.5l0,0l0,0c0.4,0.1,0.8,0.2,1.3,0.2
		l0,0l0,0c0.4,0,0.8-0.1,1-0.2l0,0l0,0c0.2-0.2,0.4-0.4,0.4-0.6l0,0l0,0c0-0.3-0.1-0.6-0.4-0.7l0,0l0,0c-0.3-0.2-0.6-0.3-1-0.4l0,0
		l0,0c-0.4-0.1-0.8-0.2-1.1-0.4l0,0l0,0c-0.3-0.1-0.5-0.3-0.8-0.6l0,0l0,0c-0.2-0.3-0.3-0.6-0.3-1l0,0l0,0c0-0.6,0.2-1.1,0.6-1.5
		l0,0l0,0c0.4-0.4,1.1-0.6,1.9-0.6l0,0l0,0c0.4,0,0.7,0,1,0.1l0,0l0,0c0.3,0.1,0.6,0.2,0.8,0.3l0,0l-0.1,1.2l0,0
		c-0.2-0.2-0.5-0.3-0.8-0.4l0,0l0,0c-0.3-0.1-0.6-0.2-0.9-0.2l0,0l0,0c-0.4,0-0.7,0.1-1,0.2l0,0l0,0C0-49-0.1-48.8-0.1-48.4l0,0l0,0
		c0,0.2,0.1,0.4,0.2,0.5l0,0l0,0c0.1,0.1,0.3,0.2,0.5,0.3l0,0l0,0c0.2,0.1,0.5,0.2,0.9,0.3l0,0l0,0c0.5,0.2,1,0.4,1.4,0.7l0,0l0,0
		c0.4,0.3,0.6,0.8,0.6,1.4l0,0l0,0c0,0.6-0.2,1-0.6,1.4l0,0l0,0C2.4-43.4,1.7-43.2,0.8-43.2L0.8-43.2z M5.2-40l1.6-3.7l-2.9-6.5h1.4
		l2.1,5.1l1.9-5.1h1.4L6.6-40H5.2z M15.1-50.4L15.1-50.4c1.9,0,2.8,1.1,2.8,3.2l0,0v3.8h-1.3v-3.8l0,0c0-0.7-0.1-1.3-0.4-1.6l0,0
		l0,0c-0.3-0.3-0.7-0.5-1.4-0.5l0,0l0,0c-0.4,0-0.8,0.1-1.1,0.2l0,0l0,0c-0.3,0.2-0.6,0.4-0.8,0.7l0,0v5h-1.3v-6.9h1l0.1,0.7l0,0
		c0.4-0.3,0.7-0.6,1.1-0.7l0,0l0,0C14.3-50.3,14.7-50.4,15.1-50.4L15.1-50.4z M22.7-43.2L22.7-43.2c-0.7,0-1.4-0.2-1.9-0.5l0,0l0,0
		c-0.5-0.3-0.9-0.7-1.2-1.3l0,0l0,0c-0.3-0.5-0.4-1.1-0.4-1.8l0,0l0,0c0-1.1,0.3-2,0.9-2.6l0,0l0,0c0.6-0.7,1.5-1,2.7-1l0,0l0,0
		c0.7,0,1.3,0.1,1.9,0.4l0,0l-0.2,1.1l0,0c-0.6-0.3-1.1-0.4-1.7-0.4l0,0l0,0c-0.7,0-1.3,0.2-1.7,0.6l0,0l0,0c-0.4,0.4-0.6,1-0.6,1.8
		l0,0l0,0c0,0.8,0.2,1.4,0.6,1.8l0,0l0,0c0.4,0.4,1,0.7,1.7,0.7l0,0l0,0c0.6,0,1.2-0.1,1.8-0.4l0,0l0.2,1l0,0
		c-0.2,0.1-0.5,0.3-0.8,0.4l0,0l0,0C23.4-43.3,23.1-43.2,22.7-43.2L22.7-43.2z M29.3-43.4v-9.8h6v1.2h-4.6v2.9h3.7v1.2h-3.7v3.3h4.8
		v1.2H29.3z M38.6-43.2L38.6-43.2c-0.6,0-1.1-0.2-1.4-0.5l0,0l0,0c-0.3-0.3-0.4-0.7-0.4-1.2l0,0v-9h1.3v8.3l0,0c0,0.4,0,0.7,0.1,0.9
		l0,0l0,0c0,0.2,0.1,0.3,0.3,0.4l0,0l0,0c0.1,0.1,0.4,0.1,0.7,0.1l0,0l-0.2,1H38.6z M43.4-43.2L43.4-43.2c-0.8,0-1.5-0.2-2-0.5l0,0
		l0,0c-0.6-0.3-1-0.8-1.3-1.3l0,0l0,0c-0.3-0.6-0.4-1.2-0.4-1.8l0,0l0,0c0-0.6,0.1-1.2,0.4-1.8l0,0l0,0c0.3-0.5,0.6-1,1.2-1.3l0,0
		l0,0c0.5-0.3,1.1-0.5,1.8-0.5l0,0l0,0c0.9,0,1.6,0.3,2.1,0.8l0,0l0,0c0.5,0.5,0.8,1.2,0.8,2.1l0,0l0,0c0,0.2,0,0.5-0.1,0.7l0,0h-5
		l0,0c0.1,0.9,0.4,1.5,0.8,1.9l0,0l0,0c0.5,0.4,1,0.6,1.8,0.6l0,0l0,0c0.7,0,1.4-0.1,2-0.4l0,0l0.2,1l0,0
		C44.9-43.4,44.1-43.2,43.4-43.2L43.4-43.2z M41.1-47.7h3.6l0,0c0-0.5-0.1-0.9-0.4-1.2l0,0l0,0c-0.3-0.3-0.7-0.4-1.3-0.4l0,0l0,0
		c-0.5,0-1,0.1-1.3,0.4l0,0l0,0C41.4-48.6,41.2-48.2,41.1-47.7L41.1-47.7z M50.1-39.9L50.1-39.9c-1,0-1.8-0.2-2.4-0.5l0,0l0,0
		c-0.6-0.4-0.9-0.9-0.9-1.5l0,0l0,0c0-0.7,0.4-1.3,1.2-1.6l0,0l0,0c-0.4-0.2-0.7-0.5-0.7-0.9l0,0l0,0c0-0.4,0.3-0.8,0.8-1l0,0l0,0
		c-0.4-0.2-0.7-0.6-0.9-1l0,0l0,0c-0.2-0.4-0.3-0.9-0.3-1.4l0,0l0,0c0-0.5,0.1-1,0.4-1.4l0,0l0,0c0.2-0.4,0.6-0.7,1-1l0,0l0,0
		c0.4-0.2,0.9-0.4,1.5-0.4l0,0l0,0c0.6,0,1.2,0.2,1.7,0.5l0,0l0,0c0.5-0.3,1.1-0.4,1.7-0.4l0,0h0.1l-0.2,0.8h-0.3l0,0
		c-0.1,0-0.2,0-0.4,0l0,0l0,0c-0.2,0-0.3,0-0.4,0.1l0,0l0,0c0.2,0.2,0.4,0.5,0.5,0.8l0,0l0,0c0.1,0.3,0.2,0.6,0.2,0.9l0,0l0,0
		c0,0.5-0.1,1-0.3,1.4l0,0l0,0c-0.2,0.4-0.6,0.7-1,1l0,0l0,0c-0.4,0.2-0.9,0.4-1.5,0.4l0,0l0,0c-0.3,0-0.6,0-0.9-0.1l0,0l0,0
		c-0.2,0.1-0.3,0.2-0.3,0.4l0,0l0,0c0,0.2,0.3,0.4,0.8,0.4l0,0l1.8,0.3l0,0c0.8,0.1,1.3,0.3,1.7,0.7l0,0l0,0
		c0.4,0.3,0.6,0.8,0.6,1.3l0,0l0,0c0,0.7-0.3,1.2-0.9,1.6l0,0l0,0C51.9-40,51.1-39.9,50.1-39.9L50.1-39.9z M49.8-46L49.8-46
		c0.5,0,0.9-0.2,1.2-0.5l0,0l0,0c0.3-0.3,0.4-0.7,0.4-1.3l0,0l0,0c0-0.5-0.1-0.9-0.4-1.2l0,0l0,0c-0.3-0.3-0.7-0.5-1.2-0.5l0,0l0,0
		c-0.5,0-0.9,0.2-1.2,0.5l0,0l0,0c-0.3,0.3-0.4,0.7-0.4,1.2l0,0l0,0c0,0.5,0.1,0.9,0.4,1.3l0,0l0,0C48.8-46.1,49.2-46,49.8-46
		L49.8-46z M50.2-41L50.2-41c0.6,0,1.1-0.1,1.5-0.3l0,0l0,0c0.3-0.2,0.5-0.4,0.5-0.7l0,0l0,0c0-0.2-0.1-0.4-0.3-0.6l0,0l0,0
		c-0.2-0.1-0.5-0.3-1-0.3l0,0l-2-0.3l0,0c-0.3,0.1-0.5,0.3-0.7,0.5l0,0l0,0c-0.2,0.2-0.3,0.4-0.3,0.6l0,0l0,0c0,0.4,0.2,0.7,0.6,0.8
		l0,0l0,0C49-41.1,49.5-41,50.2-41L50.2-41z M55.8-43.2L55.8-43.2c-0.6,0-1.1-0.2-1.5-0.6l0,0l0,0c-0.4-0.4-0.6-0.8-0.6-1.4l0,0l0,0
		c0-0.9,0.4-1.5,1.2-1.9l0,0l0,0c0.8-0.4,1.8-0.6,2.9-0.6l0,0l0,0c0-0.6-0.1-1-0.4-1.3l0,0l0,0c-0.2-0.2-0.6-0.3-1.1-0.3l0,0l0,0
		c-0.3,0-0.6,0-0.9,0.1l0,0l0,0c-0.3,0.1-0.6,0.3-0.9,0.5l0,0l-0.2-1l0,0c0.3-0.2,0.6-0.4,1-0.5l0,0l0,0c0.4-0.1,0.8-0.2,1.3-0.2
		l0,0l0,0c0.6,0,1.1,0.1,1.4,0.3l0,0l0,0c0.3,0.2,0.6,0.5,0.8,1l0,0l0,0c0.2,0.5,0.2,1.1,0.2,2l0,0v1.4l0,0c0,0.4,0,0.7,0,0.8l0,0
		l0,0c0,0.2,0.1,0.3,0.2,0.4l0,0l0,0c0.1,0.1,0.3,0.1,0.5,0.1l0,0H60l-0.2,1h-0.1l0,0c-0.4,0-0.7,0-0.9-0.1l0,0l0,0
		c-0.2-0.1-0.4-0.2-0.5-0.3l0,0l0,0c-0.1-0.1-0.2-0.3-0.3-0.6l0,0l0,0C57.4-43.6,56.7-43.2,55.8-43.2L55.8-43.2z M56.1-44.2
		L56.1-44.2c0.3,0,0.7-0.1,1-0.3l0,0l0,0c0.3-0.2,0.6-0.4,0.8-0.7l0,0v-1.6l0,0c-1,0-1.7,0.2-2.2,0.4l0,0l0,0
		c-0.4,0.2-0.7,0.6-0.7,1.1l0,0l0,0c0,0.4,0.1,0.6,0.3,0.8l0,0l0,0C55.5-44.3,55.8-44.2,56.1-44.2L56.1-44.2z M64.4-50.4L64.4-50.4
		c1.9,0,2.8,1.1,2.8,3.2l0,0v3.8h-1.3v-3.8l0,0c0-0.7-0.1-1.3-0.4-1.6l0,0l0,0c-0.3-0.3-0.7-0.5-1.4-0.5l0,0l0,0
		c-0.4,0-0.8,0.1-1.1,0.2l0,0l0,0c-0.3,0.2-0.6,0.4-0.8,0.7l0,0v5H61v-6.9h1l0.1,0.7l0,0c0.4-0.3,0.7-0.6,1.1-0.7l0,0l0,0
		C63.6-50.3,63.9-50.4,64.4-50.4L64.4-50.4z M71.2-43.2L71.2-43.2c-0.6,0-1.1-0.2-1.3-0.5l0,0l0,0c-0.3-0.3-0.4-0.7-0.4-1.2l0,0
		v-4.4h-1.2l0.1-1h1.1v-1.7l1.3-0.1v1.8h1.8v1h-1.8v3.6l0,0c0,0.5,0,0.8,0.1,1l0,0l0,0c0.1,0.2,0.2,0.3,0.4,0.3l0,0l0,0
		c0.2,0.1,0.5,0.1,1,0.1l0,0h0.3l-0.1,1H71.2z M78.1-43.2L78.1-43.2c-0.9,0-1.8-0.2-2.5-0.6l0,0l0,0c-0.7-0.4-1.3-1-1.7-1.8l0,0l0,0
		c-0.4-0.8-0.6-1.7-0.6-2.7l0,0l0,0c0-1,0.2-1.9,0.6-2.7l0,0l0,0c0.4-0.8,1-1.4,1.7-1.8l0,0l0,0c0.7-0.4,1.6-0.6,2.5-0.6l0,0l0,0
		c0.9,0,1.8,0.2,2.5,0.6l0,0l0,0c0.7,0.4,1.3,1,1.7,1.8l0,0l0,0c0.4,0.8,0.6,1.7,0.6,2.7l0,0l0,0c0,1-0.2,1.9-0.6,2.7l0,0l0,0
		c-0.4,0.8-1,1.4-1.7,1.8l0,0l0,0C79.8-43.4,79-43.2,78.1-43.2L78.1-43.2z M78.1-44.5L78.1-44.5c0.7,0,1.3-0.2,1.9-0.5l0,0l0,0
		c0.5-0.3,0.9-0.8,1.2-1.4l0,0l0,0c0.3-0.6,0.4-1.2,0.4-2l0,0l0,0c0-0.7-0.1-1.4-0.4-2l0,0l0,0c-0.3-0.6-0.6-1-1.2-1.4l0,0l0,0
		c-0.5-0.3-1.1-0.5-1.9-0.5l0,0l0,0c-0.7,0-1.4,0.2-1.9,0.5l0,0l0,0c-0.5,0.3-0.9,0.8-1.1,1.4l0,0l0,0c-0.3,0.6-0.4,1.2-0.4,2l0,0
		l0,0c0,0.7,0.1,1.4,0.4,2l0,0l0,0c0.3,0.6,0.6,1,1.1,1.4l0,0l0,0C76.7-44.6,77.3-44.5,78.1-44.5L78.1-44.5z M86.5-43.4V-52h-2.8
		v-1.2h7v1.2h-2.9v8.6H86.5z M98-43.4L97.1-46h-3.8l-0.9,2.7H91l3.5-9.8h1.4l3.5,9.8H98z M93.8-47.2h2.9l-1.5-4.1L93.8-47.2z"/>
</g>
<g id="_x32_1e793a2-70b8-33ce-5769-22f208c47325" transform="matrix(0.18108908573766014,0,0,0.18108908573766014,36.66575500659057,123.51582483087321)">
	<g>
		<g>
			<g>
				<g>
					
						<linearGradient id="SVGID_1_" gradientUnits="userSpaceOnUse" x1="-1635.4113" y1="487.8766" x2="-1634.4113" y2="487.8766" gradientTransform="matrix(31.4137 8.4891 14.6484 -18.2049 44191.0938 22333.0332)">
						<stop  offset="0" style="stop-color:#395ECA"/>
						<stop  offset="1" style="stop-color:#848BD8"/>
					</linearGradient>
					<path class="st0" d="M162.6-375.6c5.7,0,7.8,6.6,4.5,10.8c-7.2,8.4-14.4,16.5-21.6,24.9c-2.1,2.4-6.6,2.4-9,0
						c-7.2-8.4-14.4-16.5-21.6-24.9c-4.5-5.1,1.2-12.3,6.3-10.8c4.5,0,8.7,0,13.2,0c-7.2-28.8-29.1-52.5-58.8-59.1
						c-5.7-1.2-11.4-1.8-17.1-1.8c-28.8,0-55.5,15.9-69.6,42c-3.9,7.2-14.7,0.9-10.8-6.3c19.2-34.8,59.4-54.9,98.7-46.2
						c35.4,7.5,63,36,70.2,71.4C152.1-375.6,157.2-375.6,162.6-375.6z"/>
				</g>
			</g>
		</g>
	</g>
	<g>
		<g>
			<g>
				<g>
					
						<linearGradient id="SVGID_2_" gradientUnits="userSpaceOnUse" x1="-1635.4113" y1="487.096" x2="-1634.4113" y2="487.096" gradientTransform="matrix(31.4137 8.5119 14.6484 -18.2539 44168.168 22468.7363)">
						<stop  offset="0" style="stop-color:#395ECA"/>
						<stop  offset="1" style="stop-color:#848BD8"/>
					</linearGradient>
					<path class="st1" d="M-39.6-337.2c-5.7,0-7.8-6.6-4.5-10.8c7.2-8.4,14.4-16.5,21.6-24.9c2.1-2.4,6.6-2.4,9,0
						c7.2,8.4,14.4,16.5,21.6,24.9c4.5,5.1-1.2,12.3-6.3,10.8c-4.5,0-8.7,0-13.2,0c7.2,28.8,29.1,52.5,58.8,59.1
						c5.7,1.2,11.4,1.8,17.1,1.8c28.8,0,55.5-15.9,69.6-42c3.9-7.2,14.7-0.9,10.8,6.3c-19.2,35.1-59.4,55.2-98.7,46.5
						c-35.4-7.8-63.3-36.3-70.5-71.7C-29.4-337.2-34.5-337.2-39.6-337.2z"/>
				</g>
			</g>
		</g>
	</g>
</g>
</svg>
