<svg data-v-1084b650="" xmlns="http://www.w3.org/2000/svg" viewBox="0 0 300 300"><!----> <!----> <rect data-v-1084b650="" fill="#ffffff" x="0" y="0" width="300px" height="300px" class="logo-background-square"></rect> <!----> <g data-v-1084b650="" id="e6a9b544-6145-6fc2-ea66-2788665c643e" fill="#000000" transform="matrix(1.6,0,0,1.6,94.28699172884225,133.98400549888612)"><path d="M7.13 13.51L6.19 10.86L2.44 10.86L1.50 13.51L0.10 13.51L3.61 3.71L5.01 3.71L8.53 13.51L7.13 13.51ZM2.86 9.66L5.77 9.66L4.31 5.57L2.86 9.66ZM11.42 13.65L11.42 13.65Q10.61 13.65 10.00 13.46L10.00 13.46L10.00 13.46Q9.39 13.27 9.07 13.05L9.07 13.05L9.23 11.83L9.23 11.83Q9.51 12.08 10.09 12.31L10.09 12.31L10.09 12.31Q10.67 12.53 11.37 12.53L11.37 12.53L11.37 12.53Q12.03 12.53 12.38 12.31L12.38 12.31L12.38 12.31Q12.74 12.08 12.74 11.68L12.74 11.68L12.74 11.68Q12.74 11.20 12.35 10.96L12.35 10.96L12.35 10.96Q11.96 10.71 11.37 10.54L11.37 10.54L11.37 10.54Q10.72 10.37 10.28 10.18L10.28 10.18L10.28 10.18Q9.84 10.00 9.53 9.60L9.53 9.60L9.53 9.60Q9.21 9.21 9.21 8.57L9.21 8.57L9.21 8.57Q9.21 7.69 9.84 7.10L9.84 7.10L9.84 7.10Q10.47 6.51 11.79 6.51L11.79 6.51L11.79 6.51Q12.39 6.51 12.81 6.63L12.81 6.63L12.81 6.63Q13.23 6.75 13.65 6.96L13.65 6.96L13.50 8.11L13.50 8.11Q13.16 7.83 12.75 7.67L12.75 7.67L12.75 7.67Q12.35 7.50 11.82 7.50L11.82 7.50L11.82 7.50Q11.20 7.50 10.84 7.73L10.84 7.73L10.84 7.73Q10.49 7.97 10.49 8.43L10.49 8.43L10.49 8.43Q10.49 8.74 10.65 8.93L10.65 8.93L10.65 8.93Q10.82 9.11 11.13 9.24L11.13 9.24L11.13 9.24Q11.44 9.37 12.08 9.56L12.08 9.56L12.08 9.56Q12.88 9.80 13.46 10.23L13.46 10.23L13.46 10.23Q14.04 10.67 14.04 11.61L14.04 11.61L14.04 11.61Q14.04 12.45 13.45 13.05L13.45 13.05L13.45 13.05Q12.85 13.65 11.42 13.65L11.42 13.65ZM15.79 16.90L17.37 13.20L14.52 6.65L15.92 6.65L18.06 11.75L19.99 6.65L21.39 6.65L17.19 16.90L15.79 16.90ZM25.73 6.51L25.73 6.51Q28.53 6.51 28.53 9.73L28.53 9.73L28.53 13.51L27.27 13.51L27.27 9.73L27.27 9.73Q27.27 8.62 26.86 8.13L26.86 8.13L26.86 8.13Q26.45 7.63 25.48 7.63L25.48 7.63L25.48 7.63Q24.86 7.63 24.36 7.85L24.36 7.85L24.36 7.85Q23.86 8.08 23.60 8.53L23.60 8.53L23.60 13.51L22.34 13.51L22.34 6.65L23.32 6.65L23.46 7.38L23.46 7.38Q24.01 6.89 24.56 6.70L24.56 6.70L24.56 6.70Q25.12 6.51 25.73 6.51L25.73 6.51ZM33.32 13.65L33.32 13.65Q32.20 13.65 31.40 13.19L31.40 13.19L31.40 13.19Q30.59 12.73 30.18 11.92L30.18 11.92L30.18 11.92Q29.78 11.12 29.78 10.12L29.78 10.12L29.78 10.12Q29.78 8.50 30.70 7.50L30.70 7.50L30.70 7.50Q31.61 6.51 33.42 6.51L33.42 6.51L33.42 6.51Q34.48 6.51 35.29 6.92L35.29 6.92L35.10 8.02L35.10 8.02Q34.24 7.63 33.39 7.63L33.39 7.63L33.39 7.63Q32.27 7.63 31.67 8.27L31.67 8.27L31.67 8.27Q31.07 8.90 31.07 10.07L31.07 10.07L31.07 10.07Q31.07 11.23 31.65 11.89L31.65 11.89L31.65 11.89Q32.23 12.54 33.36 12.54L33.36 12.54L33.36 12.54Q34.27 12.54 35.11 12.12L35.11 12.12L35.28 13.13L35.28 13.13Q34.97 13.34 34.43 13.50L34.43 13.50L34.43 13.50Q33.89 13.65 33.32 13.65L33.32 13.65ZM39.94 13.51L39.94 3.71L45.92 3.71L45.92 4.91L41.27 4.91L41.27 7.78L44.97 7.78L44.97 8.99L41.27 8.99L41.27 12.31L46.05 12.31L46.05 13.51L39.94 13.51ZM49.20 13.65L49.20 13.65Q48.27 13.65 47.85 13.17L47.85 13.17L47.85 13.17Q47.42 12.70 47.42 12.00L47.42 12.00L47.42 3.01L48.68 3.01L48.68 11.27L48.68 11.27Q48.68 11.89 48.76 12.17L48.76 12.17L48.76 12.17Q48.83 12.45 49.06 12.54L49.06 12.54L49.06 12.54Q49.28 12.64 49.78 12.64L49.78 12.64L49.60 13.65L49.20 13.65ZM54.03 13.65L54.03 13.65Q52.85 13.65 52.02 13.17L52.02 13.17L52.02 13.17Q51.18 12.68 50.75 11.86L50.75 11.86L50.75 11.86Q50.32 11.03 50.32 10.02L50.32 10.02L50.32 10.02Q50.32 9.06 50.72 8.25L50.72 8.25L50.72 8.25Q51.11 7.45 51.88 6.98L51.88 6.98L51.88 6.98Q52.64 6.51 53.68 6.51L53.68 6.51L53.68 6.51Q54.99 6.51 55.81 7.28L55.81 7.28L55.81 7.28Q56.63 8.05 56.63 9.41L56.63 9.41L56.63 9.41Q56.63 9.76 56.57 10.08L56.57 10.08L51.60 10.08L51.60 10.08Q51.73 11.41 52.42 11.97L52.42 11.97L52.42 11.97Q53.10 12.53 54.18 12.53L54.18 12.53L54.18 12.53Q55.26 12.53 56.15 12.12L56.15 12.12L56.32 13.12L56.32 13.12Q55.13 13.65 54.03 13.65L54.03 13.65ZM51.72 9.21L55.33 9.21L55.33 9.21Q55.33 8.47 54.91 8.05L54.91 8.05L54.91 8.05Q54.49 7.63 53.65 7.63L53.65 7.63L53.65 7.63Q52.84 7.63 52.37 8.03L52.37 8.03L52.37 8.03Q51.91 8.43 51.72 9.21L51.72 9.21ZM60.68 17.01L60.68 17.01Q59.22 17.01 58.32 16.48L58.32 16.48L58.32 16.48Q57.41 15.95 57.41 14.97L57.41 14.97L57.41 14.97Q57.41 13.89 58.60 13.36L58.60 13.36L58.60 13.36Q57.93 13.02 57.93 12.49L57.93 12.49L57.93 12.49Q57.93 11.82 58.74 11.49L58.74 11.49L58.74 11.49Q58.17 11.14 57.86 10.54L57.86 10.54L57.86 10.54Q57.55 9.94 57.55 9.18L57.55 9.18L57.55 9.18Q57.55 8.43 57.90 7.82L57.90 7.82L57.90 7.82Q58.24 7.21 58.88 6.86L58.88 6.86L58.88 6.86Q59.51 6.51 60.38 6.51L60.38 6.51L60.38 6.51Q61.31 6.51 62.06 7.04L62.06 7.04L62.06 7.04Q62.80 6.62 63.77 6.62L63.77 6.62L63.88 6.62L63.73 7.46L63.41 7.46L63.41 7.46Q63.28 7.46 63.04 7.49L63.04 7.49L63.04 7.49Q62.80 7.52 62.62 7.56L62.62 7.56L62.62 7.56Q62.92 7.90 63.07 8.32L63.07 8.32L63.07 8.32Q63.22 8.74 63.22 9.18L63.22 9.18L63.22 9.18Q63.22 9.97 62.88 10.59L62.88 10.59L62.88 10.59Q62.54 11.21 61.89 11.57L61.89 11.57L61.89 11.57Q61.25 11.93 60.38 11.93L60.38 11.93L60.38 11.93Q59.88 11.93 59.46 11.80L59.46 11.80L59.46 11.80Q59.14 11.91 59.14 12.17L59.14 12.17L59.14 12.17Q59.14 12.50 59.91 12.61L59.91 12.61L61.74 12.91L61.74 12.91Q62.89 13.09 63.48 13.57L63.48 13.57L63.48 13.57Q64.06 14.04 64.06 14.88L64.06 14.88L64.06 14.88Q64.06 15.93 63.16 16.47L63.16 16.47L63.16 16.47Q62.26 17.01 60.68 17.01L60.68 17.01ZM60.38 10.92L60.38 10.92Q61.17 10.92 61.59 10.45L61.59 10.45L61.59 10.45Q62.02 9.98 62.02 9.20L62.02 9.20L62.02 9.20Q62.02 8.44 61.59 7.98L61.59 7.98L61.59 7.98Q61.17 7.52 60.38 7.52L60.38 7.52L60.38 7.52Q59.60 7.52 59.18 7.98L59.18 7.98L59.18 7.98Q58.76 8.44 58.76 9.20L58.76 9.20L58.76 9.20Q58.76 9.98 59.18 10.45L59.18 10.45L59.18 10.45Q59.60 10.92 60.38 10.92L60.38 10.92ZM60.79 15.89L60.79 15.89Q61.75 15.89 62.27 15.64L62.27 15.64L62.27 15.64Q62.79 15.39 62.79 14.91L62.79 14.91L62.79 14.91Q62.79 14.55 62.48 14.33L62.48 14.33L62.48 14.33Q62.16 14.11 61.53 13.99L61.53 13.99L59.57 13.65L59.57 13.65Q59.15 13.85 58.88 14.13L58.88 14.13L58.88 14.13Q58.62 14.42 58.62 14.77L58.62 14.77L58.62 14.77Q58.62 15.34 59.19 15.62L59.19 15.62L59.19 15.62Q59.77 15.89 60.79 15.89L60.79 15.89ZM66.47 13.65L66.47 13.65Q65.52 13.65 64.94 13.09L64.94 13.09L64.94 13.09Q64.36 12.53 64.36 11.66L64.36 11.66L64.36 11.66Q64.36 10.36 65.59 9.80L65.59 9.80L65.59 9.80Q66.82 9.24 68.46 9.21L68.46 9.21L68.46 9.21Q68.46 8.29 68.10 7.96L68.10 7.96L68.10 7.96Q67.75 7.63 66.96 7.63L66.96 7.63L66.96 7.63Q66.53 7.63 66.09 7.76L66.09 7.76L66.09 7.76Q65.66 7.90 65.16 8.25L65.16 8.25L64.97 7.22L64.97 7.22Q65.39 6.90 66.01 6.71L66.01 6.71L66.01 6.71Q66.63 6.51 67.30 6.51L67.30 6.51L67.30 6.51Q68.18 6.51 68.71 6.82L68.71 6.82L68.71 6.82Q69.23 7.13 69.48 7.84L69.48 7.84L69.48 7.84Q69.72 8.55 69.72 9.80L69.72 9.80L69.72 11.20L69.72 11.20Q69.72 11.76 69.77 12.05L69.77 12.05L69.77 12.05Q69.82 12.33 69.99 12.49L69.99 12.49L69.99 12.49Q70.15 12.64 70.50 12.64L70.50 12.64L70.63 12.64L70.43 13.65L70.34 13.65L70.34 13.65Q69.75 13.65 69.41 13.54L69.41 13.54L69.41 13.54Q69.08 13.43 68.90 13.22L68.90 13.22L68.90 13.22Q68.73 13.01 68.57 12.64L68.57 12.64L68.57 12.64Q67.70 13.65 66.47 13.65L66.47 13.65ZM66.71 12.64L66.71 12.64Q67.21 12.64 67.68 12.39L67.68 12.39L67.68 12.39Q68.15 12.14 68.46 11.72L68.46 11.72L68.46 10.08L68.46 10.08Q66.95 10.14 66.30 10.48L66.30 10.48L66.30 10.48Q65.65 10.82 65.65 11.59L65.65 11.59L65.65 11.59Q65.65 12.12 65.93 12.38L65.93 12.38L65.93 12.38Q66.22 12.64 66.71 12.64L66.71 12.64ZM74.98 6.51L74.98 6.51Q77.78 6.51 77.78 9.73L77.78 9.73L77.78 13.51L76.52 13.51L76.52 9.73L76.52 9.73Q76.52 8.62 76.11 8.13L76.11 8.13L76.11 8.13Q75.70 7.63 74.73 7.63L74.73 7.63L74.73 7.63Q74.12 7.63 73.61 7.85L73.61 7.85L73.61 7.85Q73.11 8.08 72.86 8.53L72.86 8.53L72.86 13.51L71.60 13.51L71.60 6.65L72.58 6.65L72.72 7.38L72.72 7.38Q73.26 6.89 73.81 6.70L73.81 6.70L73.81 6.70Q74.37 6.51 74.98 6.51L74.98 6.51ZM81.79 13.65L81.79 13.65Q80.88 13.65 80.44 13.17L80.44 13.17L80.44 13.17Q80.00 12.70 80.00 12.01L80.00 12.01L80.00 7.63L78.82 7.63L78.93 6.65L80.00 6.65L80.00 4.96L81.26 4.83L81.26 6.65L83.06 6.65L83.06 7.63L81.26 7.63L81.26 11.24L81.26 11.24Q81.26 11.96 81.34 12.22L81.34 12.22L81.34 12.22Q81.42 12.49 81.70 12.56L81.70 12.56L81.70 12.56Q81.97 12.64 82.70 12.64L82.70 12.64L83.02 12.64L82.92 13.65L81.79 13.65ZM88.68 13.71L88.68 13.71Q87.28 13.71 86.18 13.08L86.18 13.08L86.18 13.08Q85.08 12.45 84.46 11.29L84.46 11.29L84.46 11.29Q83.85 10.14 83.85 8.61L83.85 8.61L83.85 8.61Q83.85 7.08 84.46 5.93L84.46 5.93L84.46 5.93Q85.08 4.77 86.18 4.14L86.18 4.14L86.18 4.14Q87.28 3.51 88.68 3.51L88.68 3.51L88.68 3.51Q90.08 3.51 91.18 4.14L91.18 4.14L91.18 4.14Q92.27 4.77 92.89 5.93L92.89 5.93L92.89 5.93Q93.51 7.08 93.51 8.61L93.51 8.61L93.51 8.61Q93.51 10.14 92.89 11.29L92.89 11.29L92.89 11.29Q92.27 12.45 91.18 13.08L91.18 13.08L91.18 13.08Q90.08 13.71 88.68 13.71L88.68 13.71ZM88.68 12.42L88.68 12.42Q89.77 12.42 90.54 11.92L90.54 11.92L90.54 11.92Q91.31 11.42 91.69 10.56L91.69 10.56L91.69 10.56Q92.08 9.70 92.08 8.61L92.08 8.61L92.08 8.61Q92.08 7.52 91.69 6.66L91.69 6.66L91.69 6.66Q91.31 5.80 90.54 5.30L90.54 5.30L90.54 5.30Q89.77 4.80 88.68 4.80L88.68 4.80L88.68 4.80Q87.58 4.80 86.81 5.30L86.81 5.30L86.81 5.30Q86.04 5.80 85.66 6.66L85.66 6.66L85.66 6.66Q85.27 7.52 85.27 8.61L85.27 8.61L85.27 8.61Q85.27 9.70 85.66 10.56L85.66 10.56L85.66 10.56Q86.04 11.42 86.81 11.92L86.81 11.92L86.81 11.92Q87.58 12.42 88.68 12.42L88.68 12.42ZM97.13 13.51L97.13 4.91L94.28 4.91L94.28 3.71L101.32 3.71L101.32 4.91L98.46 4.91L98.46 13.51L97.13 13.51ZM108.65 13.51L107.72 10.86L103.96 10.86L103.03 13.51L101.63 13.51L105.14 3.71L106.54 3.71L110.05 13.51L108.65 13.51ZM104.38 9.66L107.30 9.66L105.84 5.57L104.38 9.66Z"></path></g> <linearGradient data-v-1084b650="" gradientTransform="rotate(25)" id="df28273a-f757-c81f-ff92-2296a665886e" x1="0%" y1="0%" x2="100%" y2="0%"><stop data-v-1084b650="" offset="0%" style="stop-color: rgb(57, 94, 202); stop-opacity: 1;"></stop> <stop data-v-1084b650="" offset="100%" style="stop-color: rgb(132, 139, 216); stop-opacity: 1;"></stop></linearGradient> <g data-v-1084b650="" id="21e793a2-70b8-33ce-5769-22f208c47325" fill="url(#df28273a-f757-c81f-ff92-2296a665886e)" stroke="none" transform="matrix(0.18108908573766014,0,0,0.18108908573766014,36.66575500659057,123.51582483087321)"><svg xmlns="http://www.w3.org/2000/svg" xmlns:xlink="http://www.w3.org/1999/xlink" version="1.1" x="0px" y="0px" viewBox="0 0 97 100" enable-background="new 0 0 97 100" xml:space="preserve"><g><g><g><g><path d="M84,42.3c1.9,0,2.6,2.2,1.5,3.6c-2.4,2.8-4.8,5.5-7.2,8.3c-0.7,0.8-2.2,0.8-3,0c-2.4-2.8-4.8-5.5-7.2-8.3      c-1.5-1.7,0.4-4.1,2.1-3.6c1.5,0,2.9,0,4.4,0c-2.4-9.6-9.7-17.5-19.6-19.7c-1.9-0.4-3.8-0.6-5.7-0.6c-9.6,0-18.5,5.3-23.2,14      c-1.3,2.4-4.9,0.3-3.6-2.1c6.4-11.6,19.8-18.3,32.9-15.4C67.2,21,76.4,30.5,78.8,42.3C80.5,42.3,82.2,42.3,84,42.3z"></path></g></g></g></g><g><g><g><g><path d="M16.6,55.1c-1.9,0-2.6-2.2-1.5-3.6c2.4-2.8,4.8-5.5,7.2-8.3c0.7-0.8,2.2-0.8,3,0c2.4,2.8,4.8,5.5,7.2,8.3      c1.5,1.7-0.4,4.1-2.1,3.6c-1.5,0-2.9,0-4.4,0c2.4,9.6,9.7,17.5,19.6,19.7c1.9,0.4,3.8,0.6,5.7,0.6c9.6,0,18.5-5.3,23.2-14      c1.3-2.4,4.9-0.3,3.6,2.1C71.7,75.2,58.3,81.9,45.2,79c-11.8-2.6-21.1-12.1-23.5-23.9C20,55.1,18.3,55.1,16.6,55.1z"></path></g></g></g></g></svg></g></svg>